<svg xmlns="http://www.w3.org/2000/svg" viewBox="0 0 160 100" width="160" height="100" role="img">
    <rect width="160" height="100" fill="#131110"/>
    <rect x="16" y="22" width="128" height="56" rx="5" fill="#cdc4b0"/>
    <path d="M16 27a5 5 0 015-5h59v56H21a5 5 0 01-5-5V27z" fill="#8f8779"/>
    <rect x="26" y="34" width="44" height="4" rx="2" fill="#f4ede1" opacity=".55"/>
    <rect x="26" y="44" width="34" height="4" rx="2" fill="#f4ede1" opacity=".35"/>
    <rect x="26" y="56" width="40" height="12" rx="2" fill="#f4ede1" opacity=".25"/>
    <rect x="90" y="32" width="20" height="16" rx="3" fill="#f4ede1"/>
    <rect x="114" y="32" width="20" height="16" rx="3" fill="#f4ede1"/>
    <rect x="90" y="52" width="20" height="16" rx="3" fill="#f4ede1"/>
    <rect x="114" y="52" width="20" height="16" rx="3" fill="#f4ede1"/>
    <rect x="78" y="22" width="2" height="56" fill="#f4ede1"/>
    <circle cx="79" cy="50" r="8" fill="#f4ede1"/>
    <path d="M75.5 50h7M77 48l-2 2 2 2M81 48l2 2-2 2" stroke="#131110" stroke-width="1.4" stroke-linecap="round" stroke-linejoin="round" fill="none"/>
</svg>
